<?xml version="1.0" encoding="utf-8"?>
<!-- Generator: Adobe Illustrator 18.0.0, SVG Export Plug-In . SVG Version: 6.00 Build 0)  -->
<!DOCTYPE svg PUBLIC "-//W3C//DTD SVG 1.1//EN" "http://www.w3.org/Graphics/SVG/1.1/DTD/svg11.dtd">
<svg version="1.1" id="Warstwa_1" xmlns="http://www.w3.org/2000/svg" xmlns:xlink="http://www.w3.org/1999/xlink" x="0px" y="0px"
	 viewBox="0 0 56 56" enable-background="new 0 0 56 56" xml:space="preserve">
<g>
	<path fill="#00A4E4" d="M55.9,28c0,15.4-12.5,28-28,28c-15.4,0-28-12.5-28-28C0,12.5,12.5,0,28,0C43.4,0,55.9,12.5,55.9,28z"/>
	<path fill="#FFD100" d="M18.9,26.2v-5.6h3.8l0.9-3.8h5.3l-0.8,3.8h3.3l0.9-3.8h5.3l-0.9,3.8H39v5.6h-3.8c0,0-0.8,3.5-0.8,3.5H37
		v5.6h-3.8l-0.9,3.8h-5.3l0.9-3.8h-3.3l-0.9,3.8h-5.3l0.8-3.8h-2.5v-5.6h3.7l0.8-3.5H18.9z M26.7,26.2c0,0-0.8,3.5-0.8,3.5h3.3
		l0.8-3.5H26.7z"/>
</g>
</svg>
