<?xml version="1.0" encoding="utf-8"?>
<!-- Generator: Adobe Illustrator 18.0.0, SVG Export Plug-In . SVG Version: 6.00 Build 0)  -->
<!DOCTYPE svg PUBLIC "-//W3C//DTD SVG 1.1//EN" "http://www.w3.org/Graphics/SVG/1.1/DTD/svg11.dtd">
<svg version="1.1" id="Warstwa_1" xmlns="http://www.w3.org/2000/svg" xmlns:xlink="http://www.w3.org/1999/xlink" x="0px" y="0px"
	 viewBox="0 0 160 35" enable-background="new 0 0 160 35" xml:space="preserve">
<path fill="#802769" d="M1.6,34.9c-0.9,0-1.6-0.7-1.6-1.6V8.8c0-0.9,0.7-1.6,1.6-1.6h1.4c0.9,0,1.7,0.6,2,1.5L5,9.2
	c1.5-1.6,3.1-2.4,5.1-2.4c4.2,0,6.7,2.2,6.7,10.1c0,8.4-2.2,11-6.6,11c-2.1,0-3.6-0.9-4.6-1.8v7.3c0,0.9-0.7,1.6-1.6,1.6H1.6z
	 M8.2,23.4c2.2,0,2.7-1.1,2.7-6.2c0-4.9-0.5-6-2.5-6c-1.3,0-2.1,0.5-2.8,1.1v10C6.1,22.9,7,23.4,8.2,23.4z"/>
<path fill="#802769" d="M22.3,27.3c-0.9,0-1.6-0.7-1.6-1.6V8.8c0-0.9,0.7-1.6,1.6-1.6h1.4c0.9,0,1.7,0.6,1.9,1.5l0.2,0.7
	c1.2-1.7,2.9-2.6,4.8-2.6c0.3,0,0.6,0,0.8,0.1c0.4,0,0.7,0.4,0.6,0.8l-0.7,3.7c-0.1,0.5-0.6,0.8-1.1,0.7c-0.4-0.1-0.7-0.2-1.1-0.2
	c-1.3,0-2,0.3-2.9,0.9v12.7c0,0.9-0.7,1.6-1.6,1.6H22.3z"/>
<path fill="#802769" d="M42.8,27.7c-5.5,0-8.7-3.1-8.7-10.6c0-7.5,3.2-10.4,8.7-10.4s8.7,3,8.7,10.6C51.5,24.8,48.3,27.7,42.8,27.7z
	 M42.8,23.6c2.2,0,2.8-1.4,2.8-6.6c0-5.3-0.6-6.3-2.8-6.3c-2.2,0-2.7,1.1-2.7,6.5C40,22.3,40.6,23.6,42.8,23.6z"/>
<path fill="#802769" d="M57,34.9c-0.8,0.3-1.7-0.1-2.1-0.9l-0.4-0.8c-0.4-0.9-0.1-1.9,0.7-2.5c1-0.8,1.2-1.8,1.2-3.9V11.4l-0.7-0.2
	c-0.9-0.2-1.5-1-1.5-1.9V8.8c0-0.9,0.7-1.6,1.6-1.6h4.7c0.9,0,1.6,0.7,1.6,1.6v17.6C62,31.1,60.7,33.6,57,34.9z"/>
<path fill="#802769" d="M106.3,11.4c-0.9,0-1.6-0.7-1.6-1.6V8.8c0-0.9,0.7-1.6,1.6-1.6h0.5V2.6c0-0.9,0.7-1.7,1.5-1.8l2.5-0.4
	c0.8-0.1,1.5,0.5,1.5,1.3v5.6h2.1c0.9,0,1.6,0.7,1.6,1.6v1.1c0,0.9-0.7,1.6-1.6,1.6h-2.1v10.1c0,1.7,0.5,2.1,1.5,2.1
	c0.4,0,0.7-0.1,0.9-0.2c0.4-0.1,0.9,0.2,0.9,0.6l0.3,1.5c0.2,0.8-0.4,1.7-1.2,1.9c-0.7,0.2-1.4,0.3-2.4,0.3c-3.4,0-5.6-1.2-5.6-5
	V11.4H106.3z"/>
<g>
	<path fill="#00A8E1" d="M129.4,34.9c-0.9,0-1.6-0.7-1.6-1.6V8.8c0-0.9,0.7-1.6,1.6-1.6h1.4c0.9,0,1.7,0.6,2,1.5l0.1,0.4
		c1.5-1.6,3.1-2.4,5.1-2.4c4.2,0,6.7,2.2,6.7,10.1c0,8.4-2.2,11-6.6,11c-2.1,0-3.6-0.9-4.6-1.8v7.3c0,0.9-0.7,1.6-1.6,1.6H129.4z
		 M136,23.4c2.2,0,2.7-1.1,2.7-6.2c0-4.9-0.5-6-2.5-6c-1.3,0-2.1,0.5-2.8,1.1v10C133.9,22.9,134.8,23.4,136,23.4z"/>
	<path fill="#00A8E1" d="M150.1,27.3c-0.9,0-1.6-0.7-1.6-1.6V8.8c0-0.9,0.7-1.6,1.6-1.6h1.4c0.9,0,1.7,0.6,1.9,1.5l0.2,0.7
		c1.2-1.7,2.9-2.6,4.8-2.6c0.3,0,0.6,0,0.8,0.1c0.4,0,0.7,0.4,0.6,0.8l-0.7,3.7c-0.1,0.5-0.6,0.8-1.1,0.7c-0.4-0.1-0.7-0.2-1.1-0.2
		c-1.3,0-2,0.3-2.9,0.9v12.7c0,0.9-0.7,1.6-1.6,1.6H150.1z"/>
</g>
<path fill="#802769" d="M75.6,27.8c-6.7,0-9.7-3.1-9.7-10.6c0-7.6,3.1-10.4,8.4-10.4c6,0,8.4,3.3,8.4,10.7v0.8
	c0,0.4-0.4,0.8-0.7,0.8h-10c0.2,3.7,1.2,4.4,3.6,4.4c1.3,0,2.2-0.4,3.1-0.8c0.7-0.4,1.7-0.2,2.2,0.5l0.7,1.1
	c0.5,0.7,0.3,1.7-0.5,2.1C79.6,27.2,77.8,27.8,75.6,27.8z M74.5,10.7c-1.8,0-2.4,0.9-2.6,4.5h5.2C77,12,76.6,10.7,74.5,10.7z"/>
<path fill="#00A8E1" d="M87.6,27.9c-0.9,0-1.6-0.7-1.6-1.6v-2.7c0-0.9,0.7-1.6,1.6-1.6H90c0.9,0,1.6,0.7,1.6,1.6v2.7
	c0,0.9-0.7,1.6-1.6,1.6H87.6z"/>
<path fill="#00A8E1" d="M90,0.4l-2.5,0.4C86.7,0.9,86,1.7,86,2.6v2.5v1.6v10.6c0,0.9,0.7,1.6,1.6,1.6H90c0.9,0,1.6-0.7,1.6-1.6V6.6
	V5.1V1.7C91.5,0.9,90.9,0.2,90,0.4z"/>
<path fill="#802769" d="M99.2,17.3l4-8.6c0.4-0.6,0-1.3-0.7-1.3h-3c-0.9,0-1.8,0.6-2.3,1.4l-3.8,7.6c-0.1,0.3-0.2,0.6-0.3,0.9
	c0,0.3,0.1,0.7,0.3,0.9l3.9,8.3c0.4,0.9,1.3,1.4,2.3,1.4h3c0.7,0,1.1-0.7,0.7-1.3L99.2,17.3z"/>
</svg>
